<svg width="706" height="543" viewBox="0 0 706 543" fill="none" xmlns="http://www.w3.org/2000/svg">
<g opacity="0.15">
<path d="M1 79.1035V542.104" stroke="#5E5E5E"/>
<path d="M33 112.104V542.104" stroke="#5E5E5E"/>
<path d="M65 146.104V542.104" stroke="#5E5E5E"/>
<path d="M97 190.104V542.104" stroke="#5E5E5E"/>
<path d="M129 146.104V542.104" stroke="#5E5E5E"/>
<path d="M161 112.104V542.104" stroke="#5E5E5E"/>
<path d="M193 79.1035V542.104" stroke="#5E5E5E"/>
<path d="M225 45.1035V542.104" stroke="#5E5E5E"/>
<path d="M257 12.1035V542.104" stroke="#5E5E5E"/>
<path d="M289 45.1035V542.104" stroke="#5E5E5E"/>
<path d="M321 79.1035V542.104" stroke="#5E5E5E"/>
<path d="M353 107.104V542.104" stroke="#5E5E5E"/>
<path d="M385 146.104V542.104" stroke="#5E5E5E"/>
<path d="M417 190.104V542.104" stroke="#5E5E5E"/>
<path d="M449 230.104V542.104" stroke="#5E5E5E"/>
<path d="M481 253.104V542.104" stroke="#5E5E5E"/>
<path d="M513 230.104V542.104" stroke="#5E5E5E"/>
<path d="M545 213.104V542.104" stroke="#5E5E5E"/>
<path d="M577 146.104V542.104" stroke="#5E5E5E"/>
<path d="M609 107.104V542.104" stroke="#5E5E5E"/>
<path d="M641 103.104V542.104" stroke="#5E5E5E"/>
<path d="M673 146.104V542.104" stroke="#5E5E5E"/>
<path d="M705 45.1035V542.104" stroke="#5E5E5E"/>
</g>
<mask id="mask0_74_210" style="mask-type:luminance" maskUnits="userSpaceOnUse" x="101" y="0" width="407" height="535">
<path d="M507.435 66.412L204.567 0L101.996 467.766L404.865 534.178L507.435 66.412Z" fill="white"/>
</mask>
<g mask="url(#mask0_74_210)">
<path d="M372.34 331.234C425.858 313.23 465.369 267.488 475.431 211.874C482.742 171.167 473.76 130.044 450.15 96.0962C426.532 62.1363 391.103 39.406 350.396 32.0956C312.902 25.3604 274.382 32.6399 241.938 52.5834C206.067 74.3066 180.372 110.239 171.421 151.157C170.987 153.141 172.246 155.108 174.23 155.543L261.38 174.653C263.302 175.074 265.144 173.992 265.705 172.122C272.524 140.732 303.602 120.63 335.035 127.296L335.529 127.404L337.972 127.951C367.15 136.115 385.491 164.814 380.646 194.72L380.607 194.894C376.704 215.936 361.659 233.168 341.366 239.898C315.249 248.724 291.665 264.222 273.179 284.717C254.693 305.211 241.689 330.279 235.592 357.195C235.167 359.137 236.431 361.084 238.414 361.519L325.483 380.611C327.466 381.046 329.433 379.787 329.868 377.803C334.855 355.997 351.133 338.153 372.342 331.224L372.34 331.234ZM325.552 365.654L322.716 372.648L243.479 355.273L246.514 345.9C261.479 299.611 297.928 262.677 344.011 247.092C366.884 239.354 383.714 219.779 387.928 195.993C393.606 162.091 372.851 129.664 339.64 120.593C322.391 116.09 303.76 118.876 288.508 128.21C276.56 135.489 267.115 146.634 261.902 159.601L259.081 166.62L179.371 149.141L182.346 139.798C193.526 104.679 217.28 75.1926 249.214 56.7855C281.125 38.3841 318.51 32.6005 354.48 40.4879L360.173 41.7364C438.981 62.3456 486.281 143.141 465.689 221.866C453.094 270.021 417.435 308.313 370.307 324.294L368.818 324.797L368.389 324.789C348.911 331.633 333.307 346.502 325.552 365.654Z" fill="#1E417B"/>
<path d="M253.43 500.972C279.432 506.674 305.175 490.216 310.902 464.296C316.595 438.336 300.146 412.551 274.226 406.824C261.605 404.057 248.727 406.349 237.894 413.258C227.037 420.184 219.533 430.926 216.754 443.5C213.975 456.075 216.263 468.975 223.188 479.832C230.114 490.689 240.856 498.193 253.43 500.972ZM223.928 445.17C226.234 434.506 232.554 425.379 241.734 419.475C250.903 413.569 261.83 411.581 272.492 413.897L272.594 413.92C283.211 416.248 292.296 422.559 298.177 431.701C304.083 440.87 306.071 451.797 303.754 462.459L303.714 462.644C298.9 484.596 277.122 498.541 255.18 493.73C233.146 488.898 219.168 467.123 223.917 445.168L223.928 445.17Z" fill="#1E417B"/>
</g>
</svg>
